<?xml version="1.0" encoding="UTF-8"?>
<svg width="512" height="512" viewBox="0 0 512 512" fill="none" xmlns="http://www.w3.org/2000/svg">
  <rect width="512" height="512" rx="50" fill="#1A1A1A"/>
  <rect x="80" y="80" width="352" height="352" rx="30" fill="#252525" stroke="#FF3030" stroke-width="12"/>
  <circle cx="256" cy="220" r="100" fill="#333333" stroke="#FF3030" stroke-width="8"/>
  <circle cx="256" cy="220" r="40" fill="#1A1A1A" stroke="#FF3030" stroke-width="6"/>
  <circle cx="256" cy="220" r="10" fill="#FF3030"/>
  <rect x="140" y="340" width="232" height="60" rx="10" fill="#333333" stroke="#FF3030" stroke-width="4"/>
  <rect x="160" y="360" width="40" height="20" rx="5" fill="#FF3030"/>
  <rect x="220" y="360" width="40" height="20" rx="5" fill="#FF3030"/>
  <rect x="280" y="360" width="40" height="20" rx="5" fill="#FF3030"/>
  <path d="M294 120L294 200" stroke="#FF3030" stroke-width="6"/>
  <path d="M294 120C294 120 294 100 264 100C234 100 234 120 234 120" stroke="#FF3030" stroke-width="6"/>
  <circle cx="294" cy="200" r="15" fill="#FF3030"/>
</svg>
